<?xml version="1.0" encoding="UTF-8" standalone="no"?>
<svg
   xmlns:dc="http://purl.org/dc/elements/1.1/"
   xmlns:cc="http://creativecommons.org/ns#"
   xmlns:rdf="http://www.w3.org/1999/02/22-rdf-syntax-ns#"
   xmlns:svg="http://www.w3.org/2000/svg"
   xmlns="http://www.w3.org/2000/svg"
   xmlns:sodipodi="http://sodipodi.sourceforge.net/DTD/sodipodi-0.dtd"
   xmlns:inkscape="http://www.inkscape.org/namespaces/inkscape"
   version="1.1"
   viewBox="0 0 600 100"
   stroke-miterlimit="10"
   id="svg2"
   inkscape:version="0.91 r"
   sodipodi:docname="arrows.svg"
   inkscape:export-filename="/Work/Projects/Games/ivanix4games/samples/assets/arrows.png"
   inkscape:export-xdpi="90"
   inkscape:export-ydpi="90"
   width="600"
   height="100"
   style="fill:none;stroke:none;stroke-linecap:square;stroke-miterlimit:10">
  <metadata
     id="metadata43">
    <rdf:RDF>
      <cc:Work
         rdf:about="">
        <dc:format>image/svg+xml</dc:format>
        <dc:type
           rdf:resource="http://purl.org/dc/dcmitype/StillImage" />
        <dc:title></dc:title>
      </cc:Work>
    </rdf:RDF>
  </metadata>
  <defs
     id="defs41" />
  <sodipodi:namedview
     pagecolor="#ffffff"
     bordercolor="#666666"
     borderopacity="1"
     objecttolerance="10"
     gridtolerance="10"
     guidetolerance="10"
     inkscape:pageopacity="0"
     inkscape:pageshadow="2"
     inkscape:window-width="1920"
     inkscape:window-height="1023"
     id="namedview39"
     showgrid="true"
     showguides="true"
     inkscape:zoom="3.055"
     inkscape:cx="287.76942"
     inkscape:cy="-13.188571"
     inkscape:window-x="0"
     inkscape:window-y="0"
     inkscape:window-maximized="1"
     inkscape:current-layer="g7">
    <inkscape:grid
       type="xygrid"
       id="grid4171"
       empspacing="10"
       snapvisiblegridlinesonly="false"
       color="#3ff3ff"
       opacity="0.1254902" />
  </sodipodi:namedview>
  <clipPath
     id="p.0">
    <path
       d="M 0,0 400,0 400,100 0,100 0,0 Z"
       id="path5"
       inkscape:connector-curvature="0"
       style="clip-rule:nonzero" />
  </clipPath>
  <g
     clip-path="url(#p.0)"
     id="g7">
    <path
       d="m 0,-1.9061048e-8 400,0 L 400,100 0,100 Z"
       id="path9"
       inkscape:connector-curvature="0"
       style="fill:#000000;fill-opacity:0;fill-rule:nonzero" />
    <path
       d="m 179.49081,92.094488 -27.39143,-27.598831 15.50112,0 C 162.95066,30.61875 150.32315,7.905512 136.139,7.905512 l 20.10013,0 0,0 c 14.18414,0 26.81165,22.713238 31.46149,56.590145 l 15.50113,0 z"
       id="path11"
       inkscape:connector-curvature="0"
       style="fill:#000000;fill-opacity:0;fill-rule:nonzero" />
    <path
       d="m 146.18907,11.83114 c -13.8434,11.078197 -23.25169,43.555107 -23.25169,80.26368 l -20.10011,0 0,0 c 0,-26.83667 5.06097,-52.065475 13.62534,-67.92198 8.56437,-15.8565018 19.6059,-20.4406778 29.72646,-12.341697 z"
       id="path13"
       inkscape:connector-curvature="0"
       style="fill:#000000;fill-opacity:0;fill-rule:nonzero" />
    <path
       d="m 146.18907,11.83081 c -13.8434,11.078197 -23.25169,43.555107 -23.25169,80.26368 l -20.10011,0 0,0 c 0,-46.49629 14.9097,-84.18898 33.30174,-84.18898 l 20.10012,0 0,0 c 14.18415,0 26.81165,22.713238 31.46149,56.590145 l 15.50113,0 -23.71094,27.598831 -27.39143,-27.598831 15.50113,0 C 162.95067,30.618748 150.32315,7.90551 136.139,7.90551"
       id="path15"
       inkscape:connector-curvature="0"
       style="fill:#000000;fill-opacity:0;fill-rule:nonzero" />
    <path
       d="M 144.06489,14.876306 C 133.37912,25.07058 126.11682,54.956178 126.11682,88.735797 l -15.51535,0 0,0 c 0,-42.786381 11.50885,-77.471594 25.70574,-77.471594 l 15.51536,0 0,0 c 10.9488,0 20.69601,20.900962 24.28525,52.074853 l 11.96538,0 -18.30257,25.396737 -21.14355,-25.396737 11.96537,0 C 157.00323,32.165165 147.256,11.264203 136.30721,11.264203"
       id="path19"
       inkscape:connector-curvature="0"
       style="fill-rule:nonzero;stroke:#00ff00;stroke-width:2.52840424;stroke-linecap:butt;stroke-linejoin:round" />
    <path
       d="m 92.13386,7.90551 -10.420548,0 0,0 c -31.857399,0 -57.682921,25.825521 -57.682921,57.682922 l 0,0 -18.5422025,0 30.2339435,26.506058 30.233944,-26.506058 -18.542198,0 0,0 0,0 c 0,-18.943054 15.356377,-34.29943 34.29943,-34.29943 l 10.420548,0 z"
       id="path21"
       inkscape:connector-curvature="0"
       style="fill:#000000;fill-opacity:0;fill-rule:nonzero" />
    <path
       d="m 88.922434,11.357341 -9.294843,0 0,0 c -28.415925,0 -51.451583,23.707792 -51.451583,52.952842 l 0,0 -16.539135,0 26.967848,24.332524 26.967848,-24.332524 -16.539131,0 0,0 0,0 c 0,-17.389698 13.697466,-31.48683 30.59415,-31.48683 l 9.294842,0 z"
       id="path23"
       inkscape:connector-curvature="0"
       style="fill-rule:nonzero;stroke:#00ff00;stroke-width:2.7146759;stroke-linecap:butt;stroke-linejoin:round" />
    <path
       d="m 310.19946,7.90551 10.42056,0 0,0 c 31.85739,0 57.68293,25.825521 57.68293,57.682922 l 0,0 18.5422,0 -30.23395,26.506058 -30.23394,-26.506058 18.5422,0 0,0 0,0 c 0,-18.943054 -15.35638,-34.29943 -34.29944,-34.29943 l -10.42056,0 z"
       id="path25"
       inkscape:connector-curvature="0"
       style="fill:#000000;fill-opacity:0;fill-rule:nonzero" />
    <path
       d="m 313.05361,11.300134 8.51531,0 0,0 c 26.03273,0 47.13643,23.742891 47.13643,53.031237 l 0,0 15.15203,0 -24.70611,24.368547 -24.7061,-24.368547 15.15204,0 0,0 0,0 c 0,-17.415441 -12.5487,-31.533444 -28.02829,-31.533444 l -8.51531,0 z"
       id="path27"
       inkscape:connector-curvature="0"
       style="fill-rule:nonzero;stroke:#00ff00;stroke-width:2.6002686;stroke-linecap:butt;stroke-linejoin:round" />
    <path
       d="m 215.7454,59.067386 26.60762,-24.920135 0,13.570728 0,0 c 32.66025,-4.195141 54.55774,-15.587818 54.55774,-28.384914 l 0,19.378231 0,0 c 0,12.797092 -21.89749,24.18977 -54.55774,28.384914 l 0,13.570724 z"
       id="path29"
       inkscape:connector-curvature="0"
       style="fill:#000000;fill-opacity:0;fill-rule:nonzero" />
    <path
       d="M 292.5745,69.86716 C 281.37174,57.694785 250.4843,49.51107 215.74541,49.51107 l 0,-19.37823 0,0 c 26.1846,0 50.76088,4.676129 66.00108,12.558024 15.24017,7.881897 19.27212,18.00131 10.828,27.176294 z"
       id="path31"
       inkscape:connector-curvature="0"
       style="fill:#000000;fill-opacity:0;fill-rule:nonzero" />
    <path
       d="M 292.5745,44.044782 C 281.37174,31.872407 250.4843,23.688692 215.74541,23.688692 l 0,-19.3782295 0,0 c 44.8264,0 81.16536,13.4516965 81.16536,30.0452055 l 0,19.378231 0,0 c 0,12.797092 -21.89749,24.18977 -54.55774,28.384914 l 0,13.570724 -26.60762,-21.599548 26.60762,-24.920135 0,13.570728 0,0 c 32.66025,-4.19514 54.55774,-15.587817 54.55774,-28.384913"
       id="path33"
       inkscape:connector-curvature="0"
       style="fill:#000000;fill-opacity:0;fill-rule:nonzero" />
    <path
       d="M 283.93081,44.961918 C 273.2606,34.664024 243.84145,27.740558 210.75393,27.740558 l 0,-16.394086 0,0 c 42.6955,0 77.30702,11.380208 77.30702,25.418405 l 0,16.394086 0,0 c 0,10.826408 -20.85655,20.464674 -51.96424,24.013788 l 0,11.480906 -25.34278,-18.273333 25.34278,-21.082567 0,11.480908 0,0 c 31.10769,-3.549112 51.96424,-13.187378 51.96424,-24.013788"
       id="path37"
       inkscape:connector-curvature="0"
       style="fill-rule:nonzero;stroke:#00ff00;stroke-width:2.69297266;stroke-linecap:butt;stroke-linejoin:round" />
    <rect
       style="color:#000000;clip-rule:nonzero;display:inline;overflow:visible;visibility:visible;opacity:1;isolation:auto;mix-blend-mode:normal;color-interpolation:sRGB;color-interpolation-filters:linearRGB;solid-color:#000000;solid-opacity:1;fill:#ee9000;fill-opacity:1;fill-rule:nonzero;stroke:#91afde;stroke-width:4.23430872;stroke-linecap:butt;stroke-linejoin:miter;stroke-miterlimit:4;stroke-dasharray:none;stroke-dashoffset:0;stroke-opacity:1;color-rendering:auto;image-rendering:auto;shape-rendering:auto;text-rendering:auto;enable-background:accumulate"
       id="rect4153"
       width="50.040649"
       height="41.017738"
       x="-413.31415"
       y="31.073782"
       transform="scale(-1,1)" />
  </g>
</svg>
